<svg xmlns="http://www.w3.org/2000/svg" width="44" height="42.581" viewBox="0 0 44 42.581">
  <g id="surface1" transform="translate(0 -0.125)">
    <path id="Path_171" data-name="Path 171" d="M3.548,38.448H22v-1.42H3.548A2.129,2.129,0,0,1,1.419,34.9V3.673A2.129,2.129,0,0,1,3.548,1.544H34.774A2.129,2.129,0,0,1,36.9,3.673V20h1.42V3.673A3.553,3.553,0,0,0,34.774.125H3.548A3.553,3.553,0,0,0,0,3.673V34.9A3.553,3.553,0,0,0,3.548,38.448Zm0,0"/>
    <path id="Path_172" data-name="Path 172" d="M62.344,62.469h1.419v1.419H62.344Zm0,0" transform="translate(-59.505 -59.505)"/>
    <path id="Path_173" data-name="Path 173" d="M124.676,62.469h1.42v1.419h-1.42Zm0,0" transform="translate(-118.998 -59.505)"/>
    <path id="Path_174" data-name="Path 174" d="M187.016,62.469h1.419v1.419h-1.419Zm0,0" transform="translate(-178.5 -59.505)"/>
    <path id="Path_175" data-name="Path 175" d="M62.344,124.8H94.989v1.42H62.344Zm0,0" transform="translate(-59.505 -118.998)"/>
    <path id="Path_176" data-name="Path 176" d="M69.2,191.707l-1.8,1.8a3.559,3.559,0,1,0,1,1l1.8-1.8ZM65.443,198.6a2.129,2.129,0,1,1,0-4.258,2.091,2.091,0,0,1,.912.213l-1.414,1.414,1,1,1.415-1.413a2.09,2.09,0,0,1,.213.912A2.129,2.129,0,0,1,65.443,198.6Zm0,0" transform="translate(-59.056 -182.858)"/>
    <path id="Path_177" data-name="Path 177" d="M264.941,249.484h12.064V250.9H264.941Zm0,0" transform="translate(-252.877 -238.004)"/>
    <path id="Path_178" data-name="Path 178" d="M264.941,311.82h4.968v1.419h-4.968Zm0,0" transform="translate(-252.877 -297.502)"/>
    <path id="Path_179" data-name="Path 179" d="M405.2,311.82h9.935v1.419H405.2Zm0,0" transform="translate(-386.751 -297.502)"/>
    <path id="Path_180" data-name="Path 180" d="M561.047,249.484h7.1V250.9h-7.1Zm0,0" transform="translate(-535.499 -238.004)"/>
    <path id="Path_181" data-name="Path 181" d="M69.2,378.723l-1.8,1.8a3.559,3.559,0,1,0,1,1l1.8-1.8Zm-3.757,6.889a2.129,2.129,0,0,1,0-4.258,2.094,2.094,0,0,1,.912.213l-1.414,1.414,1,1,1.415-1.413a2.091,2.091,0,0,1,.213.912A2.129,2.129,0,0,1,65.443,385.612Zm0,0" transform="translate(-59.056 -361.357)"/>
    <path id="Path_182" data-name="Path 182" d="M264.941,436.492h12.064v1.419H264.941Zm0,0" transform="translate(-252.877 -416.496)"/>
    <path id="Path_183" data-name="Path 183" d="M264.941,498.836h4.968v1.419h-4.968Zm0,0" transform="translate(-252.877 -476.001)"/>
    <path id="Path_184" data-name="Path 184" d="M405.2,498.836h5.677v1.419H405.2Zm0,0" transform="translate(-386.751 -476.001)"/>
    <path id="Path_185" data-name="Path 185" d="M561.047,436.492h2.839v1.419h-2.839Zm0,0" transform="translate(-535.499 -416.496)"/>
    <path id="Path_186" data-name="Path 186" d="M69.2,565.738l-1.8,1.8a3.559,3.559,0,1,0,1,1l1.8-1.8Zm-3.757,6.889a2.129,2.129,0,0,1,0-4.258,2.089,2.089,0,0,1,.912.213L64.942,570l1,1,1.415-1.413a2.092,2.092,0,0,1,.213.912A2.129,2.129,0,0,1,65.443,572.627Zm0,0" transform="translate(-59.056 -539.857)"/>
    <path id="Path_187" data-name="Path 187" d="M264.941,623.512h9.226v1.42h-9.226Zm0,0" transform="translate(-252.877 -595)"/>
    <path id="Path_188" data-name="Path 188" d="M264.941,685.852h4.968v1.419h-4.968Zm0,0" transform="translate(-252.877 -654.501)"/>
    <path id="Path_189" data-name="Path 189" d="M405.2,685.852h2.839v1.419H405.2Zm0,0" transform="translate(-386.751 -654.501)"/>
    <path id="Path_190" data-name="Path 190" d="M509.356,488.955a10.645,10.645,0,1,0-10.645-10.645A10.645,10.645,0,0,0,509.356,488.955Zm0-19.871a9.226,9.226,0,1,1-9.226,9.226A9.226,9.226,0,0,1,509.356,469.084Zm0,0" transform="translate(-476.001 -446.249)"/>
    <path id="Path_191" data-name="Path 191" d="M610.79,587.186l-1.27.634,1.419,2.839a.709.709,0,0,0,.521.383.8.8,0,0,0,.11.009.711.711,0,0,0,.5-.208l8.516-8.516-1-1-7.82,7.82Zm0,0" transform="translate(-581.764 -554.733)"/>
  </g>
</svg>
