<svg id="surface1" xmlns="http://www.w3.org/2000/svg" width="14" height="14" viewBox="0 0 14 14">
  <path id="Path_20" data-name="Path 20" d="M9.863,8.308A5.2,5.2,0,0,0,8.583.968,5.439,5.439,0,0,0,1.1,2.223a5.2,5.2,0,0,0,1.28,7.339A5.46,5.46,0,0,0,8.211,9.8l3.959,3.859a1.14,1.14,0,0,0,1.589.04A1.086,1.086,0,0,0,13.8,12.14l-.041-.04Zm-4.386.36A3.43,3.43,0,0,1,2.012,5.273a3.43,3.43,0,0,1,3.462-3.4A3.43,3.43,0,0,1,8.938,5.266a3.431,3.431,0,0,1-3.459,3.4Zm0,0" transform="translate(-0.109 0)" fill="#a5a5a5"/>
</svg>
