<svg xmlns="http://www.w3.org/2000/svg" width="162" height="57" viewBox="0 0 162 57">
  <metadata><?xpacket begin="﻿" id="W5M0MpCehiHzreSzNTczkc9d"?>
<x:xmpmeta xmlns:x="adobe:ns:meta/" x:xmptk="Adobe XMP Core 5.6-c138 79.159824, 2016/09/14-01:09:01        ">
   <rdf:RDF xmlns:rdf="http://www.w3.org/1999/02/22-rdf-syntax-ns#">
      <rdf:Description rdf:about=""/>
   </rdf:RDF>
</x:xmpmeta>
                                                                                                    
                                                                                                    
                                                                                                    
                                                                                                    
                                                                                                    
                                                                                                    
                                                                                                    
                                                                                                    
                                                                                                    
                                                                                                    
                                                                                                    
                                                                                                    
                                                                                                    
                                                                                                    
                                                                                                    
                                                                                                    
                                                                                                    
                                                                                                    
                                                                                                    
                                                                                                    
                           
<?xpacket end="w"?></metadata>
<defs>
    <style>
      .cls-1 {
        fill: #fff;
        fill-rule: evenodd;
      }
    </style>
  </defs>
  <path id="YM_Horizontal_Dual" data-name="YM Horizontal Dual" class="cls-1" d="M287.255,59.895a1.124,1.124,0,0,0-.746-0.753l-11.778-3.634,11.776-3.632a1.129,1.129,0,0,0,.748-0.753l4.684-15.469a1.141,1.141,0,0,0-.28-1.134,1.113,1.113,0,0,0-1.123-.283l-8.2,2.529,2.51-8.285a1.139,1.139,0,0,0-.282-1.134,1.115,1.115,0,0,0-1.122-.283L268.117,31.79a1.13,1.13,0,0,0-.748.754l-3.6,11.887-3.6-11.887a1.124,1.124,0,0,0-.745-0.754L244.1,27.063a1.111,1.111,0,0,0-1.122.283,1.139,1.139,0,0,0-.282,1.134l2.51,8.288L237,34.236a1.117,1.117,0,0,0-1.125.283,1.142,1.142,0,0,0-.279,1.134l4.683,15.469a1.131,1.131,0,0,0,.747.753L252.8,55.507l-11.777,3.634a1.125,1.125,0,0,0-.747.753l-4.683,15.467a1.141,1.141,0,0,0,.279,1.134,1.116,1.116,0,0,0,1.125.283l8.2-2.53L242.7,82.526a1.143,1.143,0,0,0,.28,1.134,1.114,1.114,0,0,0,1.124.283l15.326-4.727a1.122,1.122,0,0,0,.745-0.753l3.6-11.888,3.6,11.886a1.128,1.128,0,0,0,.748.754l15.326,4.727a1.111,1.111,0,0,0,1.122-.283,1.139,1.139,0,0,0,.282-1.134l-2.506-8.275,8.195,2.528a1.1,1.1,0,0,0,.328.05,1.118,1.118,0,0,0,.8-0.333,1.139,1.139,0,0,0,.28-1.134Zm-23.319,1.647c-0.035,0-.073-0.007-0.109-0.009-0.018,0-.035,0-0.054,0l-0.067,0c-0.032,0-.065,0-0.1.009l-0.024,0a1.261,1.261,0,0,0-.195.05l-8.144,2.512,2.506-8.277a0.015,0.015,0,0,1,0-.006,1.059,1.059,0,0,0,.032-0.139,1.08,1.08,0,0,0,.011-0.113c0-.019,0-0.037,0-0.054V55.5c0-.02,0-0.039-0.006-0.06a0.746,0.746,0,0,0-.01-0.105,1.146,1.146,0,0,0-.071-0.273L255.244,46.9l8.208,2.532h0.006a1.135,1.135,0,0,0,.138.031,0.7,0.7,0,0,0,.113.012c0.018,0,.034.006,0.053,0.006h0.018c0.018,0,.035,0,0.052-0.006a0.71,0.71,0,0,0,.114-0.012,1.135,1.135,0,0,0,.138-0.031h0.007l8.2-2.529-2.471,8.16a1.2,1.2,0,0,0-.071.273c-0.006.035-.008,0.07-0.011,0.105s-0.006.04-.006,0.06v0.019c0,0.018,0,.035.006,0.054a0.867,0.867,0,0,0,.012.113,1.059,1.059,0,0,0,.032.139,0.01,0.01,0,0,0,0,.006l2.505,8.274-8.1-2.5a1.093,1.093,0,0,0-.238-0.061l-0.011,0M251.858,43.48l-2.5-.772-0.763-2.523,2.5,0.772Zm-2.5,24.818,2.507-.772L251.1,70.058l-2.507.773Zm28.834-25.59-2.515.775,0.766-2.526,2.512-.775ZM275.67,67.521l2.518,0.777,0.766,2.536-2.515-.777ZM274.88,46.1l4.534-1.4a1.13,1.13,0,0,0,.748-0.753l1.382-4.567,7.626-2.352-3.891,12.851-12.732,3.929Zm0.33-7.136a1.124,1.124,0,0,0-.748.753l-1.382,4.566-7.626,2.352,3.892-12.851,12.731-3.927-2.333,7.707ZM254.451,44.28l-1.382-4.563a1.126,1.126,0,0,0-.746-0.753l-4.525-1.4-2.334-7.711L258.2,33.784l3.893,12.851Zm-7.071-.331a1.131,1.131,0,0,0,.746.753L252.65,46.1l2.334,7.712-12.73-3.929L238.362,37.03,246,39.385Zm5.274,20.959L248.126,66.3a1.131,1.131,0,0,0-.746.755L246,71.632l-7.633,2.354,3.892-12.85,12.73-3.929Zm-0.332,7.143a1.128,1.128,0,0,0,.747-0.753l1.385-4.573,7.634-2.355L258.2,77.222l-12.731,3.927,2.331-7.7Zm20.755-5.329,1.385,4.576a1.127,1.127,0,0,0,.748.753l4.537,1.4,2.33,7.7-12.731-3.927-3.892-12.851Zm7.085,0.336a1.131,1.131,0,0,0-.746-0.755l-4.538-1.4-2.331-7.7,12.732,3.929,3.891,12.85-7.623-2.352ZM223.647,73.75h-4.872V62.81a0.456,0.456,0,0,0-.441-0.447h-1.786a0.443,0.443,0,0,0-.44.447V75.8a0.443,0.443,0,0,0,.44.447h7.1a0.446,0.446,0,0,0,.443-0.447V74.2a0.445,0.445,0,0,0-.443-0.447m-10.454,0H208.32V62.81a0.456,0.456,0,0,0-.441-0.447h-1.786a0.445,0.445,0,0,0-.441.447V75.8a0.445,0.445,0,0,0,.441.447h7.1a0.446,0.446,0,0,0,.442-0.447V74.2a0.444,0.444,0,0,0-.442-0.445M141.631,62.6a0.438,0.438,0,0,0-.392-0.221h-2a0.447,0.447,0,0,0-.369.209l-3.044,4.419-3.045-4.422a0.448,0.448,0,0,0-.368-0.206h-1.979a0.434,0.434,0,0,0-.389.221,0.452,0.452,0,0,0,.018.463l4.41,6.529V75.8a0.443,0.443,0,0,0,.442.445H136.7a0.455,0.455,0,0,0,.443-0.445V69.574l4.468-6.513a0.448,0.448,0,0,0,.019-0.46m18.53,5.391c-1.594-.657-2.244-1.272-2.244-2.128a1.468,1.468,0,0,1,1.634-1.3,5.9,5.9,0,0,1,2.628,1.048l0.028,0.017a0.457,0.457,0,0,0,.436.036,0.777,0.777,0,0,0,.343-0.293l0.736-1.115a0.566,0.566,0,0,0,.076-0.428,0.488,0.488,0,0,0-.208-0.321,6.883,6.883,0,0,0-3.923-1.328c-3.048,0-4.436,1.989-4.436,3.836,0,2.505,2.106,3.656,3.69,4.3,1.694,0.693,2.419,1.376,2.419,2.283a1.563,1.563,0,0,1-1.693,1.436,5.615,5.615,0,0,1-2.831-1.165l-0.052-.035a0.527,0.527,0,0,0-.423-0.1A0.514,0.514,0,0,0,156,73l-0.7,1.216a0.459,0.459,0,0,0,.11.679,6.3,6.3,0,0,0,4.317,1.548c2.946,0,4.534-2.038,4.534-3.955,0-2.5-2.072-3.675-4.1-4.5m26.086-5.449a0.4,0.4,0,0,0-.422-0.359h-0.311a0.411,0.411,0,0,0-.4.239l-4.229,9.171-4.231-9.173a0.432,0.432,0,0,0-.4-0.237h-0.31a0.4,0.4,0,0,0-.422.358l-2.308,13.173a0.477,0.477,0,0,0,.1.391,0.439,0.439,0,0,0,.346.144h1.745a0.451,0.451,0,0,0,.422-0.356l1.1-7.278,3.375,7.574a0.42,0.42,0,0,0,.4.256h0.349a0.4,0.4,0,0,0,.4-0.26l3.336-7.571,1.124,7.287a0.5,0.5,0,0,0,.438.347h1.766a0.428,0.428,0,0,0,.348-0.151,0.45,0.45,0,0,0,.073-0.387Zm11.247-.1a0.4,0.4,0,0,0-.4-0.256H196.9a0.418,0.418,0,0,0-.4.258l-6.032,13.194a0.418,0.418,0,0,0,.4.614h1.688a0.658,0.658,0,0,0,.629-0.435l0.932-2.073h5.7l0.932,2.075a0.633,0.633,0,0,0,.629.434h1.687a0.418,0.418,0,0,0,.4-0.614Zm-2.358,8.977,1.816-4.124,1.856,4.124h-3.672ZM147.781,62.44a0.4,0.4,0,0,0-.394-0.256h-0.195a0.417,0.417,0,0,0-.4.258l-6.033,13.194h0a0.437,0.437,0,0,0,.019.421,0.432,0.432,0,0,0,.378.193h1.689a0.656,0.656,0,0,0,.627-0.435l0.932-2.073h5.7l0.931,2.075a0.634,0.634,0,0,0,.629.434h1.687a0.418,0.418,0,0,0,.4-0.614Zm-2.357,8.977,1.816-4.124,1.854,4.124h-3.67Zm66.409-22.946h6.5a0.449,0.449,0,0,0,.445-0.452V39.633a0.449,0.449,0,0,0-.445-0.451h-1.8a0.46,0.46,0,0,0-.445.451V46L212,46c-1.407,0-1.6-.916-1.6-1.934v0L210.4,34.684a0.461,0.461,0,0,0-.447-0.45h-1.8a0.449,0.449,0,0,0-.447.45v9.751c0,2.6,1.476,4.036,4.13,4.036m4.564,2.021a0.3,0.3,0,0,0-.3.308v1.89a0.3,0.3,0,0,0,.3.3h2.084a0.305,0.305,0,0,0,.3-0.306V50.8a0.3,0.3,0,0,0-.3-0.306H216.4Zm-12-11.316-1.922,0a0.491,0.491,0,0,0-.488.492V46h-2.822V39.708a0.533,0.533,0,0,0-.53-0.535h-1.793a0.533,0.533,0,0,0-.53.535V46h-2.822V39.637a0.462,0.462,0,0,0-.46-0.465h-1.822a0.474,0.474,0,0,0-.46.465l-0.032,10.855h-4.1a1.309,1.309,0,0,1-1.589-1.439c0-.1,0-5.621,0-5.621a0.451,0.451,0,0,0-.09-0.268,0.466,0.466,0,0,0-.369-0.2h-1.9a0.463,0.463,0,0,0-.46.466v5.425a4.724,4.724,0,0,0,.52,2.3c0.011,0.02.025,0.039,0.036,0.059a3.921,3.921,0,0,0,3.68,1.783h6.587a0.462,0.462,0,0,0,.46-0.465V48.462h10.959a0.439,0.439,0,0,0,.436-0.441V39.668a0.489,0.489,0,0,0-.488-0.492M140.033,52.995h6.513a0.449,0.449,0,0,0,.447-0.451V34.683a0.449,0.449,0,0,0-.447-0.451h-1.8a0.461,0.461,0,0,0-.447.451V50.5l-4.075-.01c-1.407,0-1.619-.942-1.619-1.962l-0.02-5a0.559,0.559,0,0,0-.556-0.563l-1.683,0a0.586,0.586,0,0,0-.557.592l0.01,5.3c0,2.665,1.512,4.138,4.234,4.138m32.408-5.435a3.585,3.585,0,0,1-1.429.838,6.632,6.632,0,0,1-3.825-.037,3.4,3.4,0,0,1-1.473-1.028,1.986,1.986,0,0,1-.532.58,2.7,2.7,0,0,1-.64.346,3.043,3.043,0,0,1-.682.167,5,5,0,0,1-.658.044h-4.386v0.611a3.771,3.771,0,0,1-1.041,2.966,4.336,4.336,0,0,1-3.019.948h-4.739a0.194,0.194,0,0,1-.218-0.221v-2.06a0.193,0.193,0,0,1,.218-0.221h4.249a3.621,3.621,0,0,0,.9-0.1,1.33,1.33,0,0,0,.614-0.341,1.474,1.474,0,0,0,.372-0.683,3.912,3.912,0,0,0,.062-0.906h-2.071a6.723,6.723,0,0,1-1.834-.186,3.106,3.106,0,0,1-1.35-.772,3.548,3.548,0,0,1-.845-1.4,6.537,6.537,0,0,1-.3-2.117,6.378,6.378,0,0,1,.375-2.3,4.395,4.395,0,0,1,.991-1.566,3.711,3.711,0,0,1,1.431-.882,5.321,5.321,0,0,1,1.715-.276,5.95,5.95,0,0,1,1.817.264,3.582,3.582,0,0,1,1.418.837,3.813,3.813,0,0,1,.925,1.495,6.8,6.8,0,0,1,.329,2.264v2.191H163a2.375,2.375,0,0,0,.959-0.177,1.353,1.353,0,0,0,.642-0.758,1.694,1.694,0,0,0,.076-0.678c-0.016-.249-0.025-0.5-0.025-0.751a6.031,6.031,0,0,1,.363-2.167,3.79,3.79,0,0,1,.945-1.45,3.663,3.663,0,0,1,1.42-.814,6.343,6.343,0,0,1,3.589.012,3.69,3.69,0,0,1,1.439.837,3.869,3.869,0,0,1,.946,1.523,6.841,6.841,0,0,1,.341,2.293,6.489,6.489,0,0,1-.33,2.205,3.834,3.834,0,0,1-.923,1.479m-16.228-3.74a3.077,3.077,0,0,0-.457-1.839,1.636,1.636,0,0,0-1.417-.587,1.693,1.693,0,0,0-1.43.667,3,3,0,0,0-.534,1.868,2.186,2.186,0,0,0,.509,1.7,2.211,2.211,0,0,0,1.522.384h1.807V43.82Zm14.91,0q0-2.471-1.961-2.472a1.711,1.711,0,0,0-1.465.635,3.022,3.022,0,0,0-.477,1.837,2.947,2.947,0,0,0,.477,1.88,2.174,2.174,0,0,0,2.951-.011,2.942,2.942,0,0,0,.475-1.868m41.484,6.672a0.307,0.307,0,0,0-.305.308v1.89a0.3,0.3,0,0,0,.3.3h2.085a0.305,0.305,0,0,0,.3-0.307V50.8a0.3,0.3,0,0,0-.3-0.3h-2.083Z" transform="translate(-130 -27)"/>
</svg>
