<?xml version="1.0" encoding="utf-8"?>
<!-- Generator: Adobe Illustrator 25.2.3, SVG Export Plug-In . SVG Version: 6.00 Build 0)  -->
<svg version="1.1" id="Layer_1" xmlns="http://www.w3.org/2000/svg" xmlns:xlink="http://www.w3.org/1999/xlink" x="0px" y="0px"
	 viewBox="0 0 512 512" style="enable-background:new 0 0 512 512;" xml:space="preserve">
<style type="text/css">
	.st0{fill:#FFFFFF;}
</style>
<g id="surface1">
	<path class="st0" d="M291.4,105H348l-86.5-91v60.9C261.4,91.4,274.8,105,291.4,105z"/>
	<path class="st0" d="M349,236.3c-76,0-137.8,61.8-137.8,137.8c0,76,61.8,137.8,137.8,137.8c76,0,137.8-61.8,137.8-137.8
		C486.8,298.2,425,236.3,349,236.3z M423,385.9l-67.6,72.5c-1.7,1.8-4.2,2.9-6.8,2.9s-5-1-6.7-2.9l-67.5-72.5
		c-3.5-3.7-3.2-9.6,0.5-13s9.7-3.2,13.1,0.5l51.7,55.4V296.9c0-5.1,4.2-9.2,9.2-9.2c5.1,0,9.2,4.2,9.2,9.2v131.8l51.4-55.4
		c3.5-3.7,9.2-3.9,12.9-0.5C426.4,376.4,426.5,382.1,423,385.9z"/>
	<path class="st0" d="M197.7,334.5H97.4c-5.1,0-9.2-4.1-9.2-9.2c0-5.1,4.2-9.2,9.2-9.2h106.3c5.9-15,13.7-27.7,23.4-40.4H97.4
		c-5.1,0-9.2-4.1-9.2-9.2c0-5.1,4.2-9.2,9.2-9.2h147.3c27.7-24.2,64.4-39.7,104.4-39.7c3.8,0,6.9,0.3,11.5,0.7v-94.8h-69.2
		c-26.8,0-48.4-21.9-48.4-48.6V0H66.1C43.2,0,25,18.7,25,41.6v352c0,23,18.2,41.2,41.1,41.2h139c-8-18.5-12.3-39.2-12.3-60.9
		C192.6,360.3,194.4,347.2,197.7,334.5z M97.4,199.5h116.8c5.1,0,9.2,4.2,9.2,9.2c0,5.1-4.2,9.2-9.2,9.2H97.4
		c-5.1,0-9.2-4.2-9.2-9.2C88.2,203.7,92.4,199.5,97.4,199.5z"/>
</g>
</svg>
