<?xml version="1.0" encoding="utf-8"?>
<!-- Generator: Adobe Illustrator 24.0.1, SVG Export Plug-In . SVG Version: 6.00 Build 0)  -->
<svg version="1.0" id="Layer_1" xmlns="http://www.w3.org/2000/svg" xmlns:xlink="http://www.w3.org/1999/xlink" x="0px" y="0px"
	 viewBox="0 0 113.39 39.51" enable-background="new 0 0 113.39 39.51" xml:space="preserve">
<g>
	<path fill="#FFFFFF" d="M110.07,22.8c-0.08-0.25-0.27-0.45-0.52-0.52l-8.24-2.52l8.24-2.52c0.25-0.08,0.45-0.27,0.52-0.52
		l3.28-10.73c0.09-0.28,0.01-0.58-0.2-0.79c-0.21-0.21-0.51-0.28-0.79-0.2l-5.74,1.75l1.76-5.75c0.09-0.28,0.01-0.58-0.2-0.79
		c-0.21-0.21-0.51-0.28-0.79-0.2L96.68,3.31c-0.25,0.08-0.45,0.27-0.52,0.52l-2.52,8.24l-2.52-8.24c-0.08-0.25-0.27-0.45-0.52-0.52
		L79.87,0.03c-0.28-0.09-0.58-0.01-0.79,0.2c-0.21,0.21-0.28,0.51-0.2,0.79l1.76,5.75L74.9,5.01C74.62,4.92,74.32,5,74.11,5.2
		c-0.21,0.21-0.28,0.51-0.2,0.79l3.28,10.73c0.08,0.25,0.27,0.45,0.52,0.52l8.24,2.52l-8.24,2.52c-0.25,0.08-0.45,0.27-0.52,0.52
		l-3.28,10.73c-0.09,0.28-0.01,0.58,0.2,0.79c0.15,0.15,0.35,0.23,0.56,0.23c0.08,0,0.15-0.01,0.23-0.03l5.74-1.75l-1.75,5.74
		c-0.09,0.28-0.01,0.58,0.2,0.79c0.15,0.15,0.35,0.23,0.56,0.23c0.08,0,0.15-0.01,0.23-0.03l10.73-3.28
		c0.25-0.08,0.45-0.27,0.52-0.52l2.52-8.24l2.52,8.24c0.08,0.25,0.27,0.45,0.52,0.52l10.73,3.28c0.08,0.02,0.15,0.03,0.23,0.03
		c0.21,0,0.41-0.08,0.56-0.23c0.21-0.21,0.28-0.51,0.2-0.79l-1.75-5.74l5.74,1.75c0.08,0.02,0.15,0.03,0.23,0.03
		c0.21,0,0.41-0.08,0.56-0.23c0.21-0.21,0.28-0.51,0.2-0.79L110.07,22.8z M93.75,23.94c-0.02,0-0.05-0.01-0.08-0.01
		c-0.01,0-0.02,0-0.04,0c-0.02,0-0.03,0-0.05,0c-0.02,0-0.05,0-0.07,0.01c-0.01,0-0.01,0-0.02,0c-0.05,0.01-0.09,0.02-0.14,0.03
		l-5.7,1.74l1.75-5.74c0,0,0,0,0,0c0.01-0.03,0.02-0.06,0.02-0.1c0-0.03,0.01-0.05,0.01-0.08c0-0.01,0-0.03,0-0.04v-0.01v-0.01
		c0-0.01,0-0.03,0-0.04c0-0.02,0-0.05-0.01-0.07c-0.01-0.07-0.03-0.13-0.05-0.19l-1.73-5.66l5.75,1.76c0,0,0,0,0,0
		c0.03,0.01,0.06,0.02,0.1,0.02c0.03,0.01,0.05,0.01,0.08,0.01c0.01,0,0.02,0,0.04,0c0,0,0,0,0.01,0c0,0,0.01,0,0.01,0
		c0.01,0,0.02,0,0.04,0c0.03,0,0.05,0,0.08-0.01c0.03-0.01,0.07-0.01,0.1-0.02c0,0,0,0,0.01,0l5.74-1.75l-1.73,5.66
		c-0.02,0.06-0.04,0.12-0.05,0.19c0,0.02-0.01,0.05-0.01,0.07c0,0.01,0,0.03,0,0.04v0.01v0.01c0,0.01,0,0.02,0,0.04
		c0,0.03,0,0.05,0.01,0.08c0.01,0.03,0.01,0.07,0.02,0.1c0,0,0,0,0,0l1.75,5.74l-5.67-1.73C93.87,23.97,93.82,23.95,93.75,23.94
		C93.76,23.94,93.75,23.94,93.75,23.94 M85.3,11.42l-1.75-0.54l-0.53-1.75l1.75,0.54L85.3,11.42z M83.55,28.63l1.75-0.54l-0.54,1.76
		l-1.75,0.54L83.55,28.63z M103.73,10.88l-1.76,0.54l0.54-1.75l1.76-0.54L103.73,10.88z M101.96,28.09l1.76,0.54l0.54,1.76
		l-1.76-0.54L101.96,28.09z M101.41,13.24l3.17-0.97c0.25-0.08,0.45-0.27,0.52-0.52l0.97-3.17l5.34-1.63l-2.72,8.91l-8.91,2.72
		L101.41,13.24z M101.64,8.29c-0.25,0.08-0.45,0.27-0.52,0.52l-0.97,3.17l-5.34,1.63l2.72-8.91l8.91-2.72l-1.63,5.34L101.64,8.29z
		 M87.11,11.97l-0.97-3.16c-0.08-0.25-0.27-0.45-0.52-0.52l-3.17-0.97l-1.63-5.35l8.91,2.72l2.72,8.91L87.11,11.97z M82.16,11.74
		c0.08,0.25,0.27,0.45,0.52,0.52l3.17,0.97l1.63,5.35l-8.91-2.72l-2.72-8.91l5.34,1.63L82.16,11.74z M85.85,26.28l-3.17,0.97
		c-0.25,0.08-0.45,0.27-0.52,0.52l-0.97,3.17l-5.34,1.63l2.72-8.91l8.91-2.72L85.85,26.28z M85.62,31.23
		c0.25-0.08,0.45-0.27,0.52-0.52l0.97-3.17l5.34-1.63l-2.72,8.91l-8.91,2.72l1.63-5.34L85.62,31.23z M100.15,27.54l0.97,3.17
		c0.08,0.25,0.27,0.45,0.52,0.52l3.18,0.97l1.63,5.34l-8.91-2.72l-2.72-8.91L100.15,27.54z M105.11,27.77
		c-0.08-0.25-0.27-0.45-0.52-0.52l-3.18-0.97l-1.63-5.34l8.91,2.72l2.72,8.91l-5.34-1.63L105.11,27.77z"/>
	<path fill="#FFFFFF" d="M65.55,32.41h-3.41v-7.59c0-0.16-0.14-0.31-0.31-0.31h-1.25c-0.17,0-0.31,0.14-0.31,0.31v9.01
		c0,0.17,0.14,0.31,0.31,0.31h4.97c0.17,0,0.31-0.14,0.31-0.31v-1.11C65.86,32.55,65.72,32.41,65.55,32.41"/>
	<path fill="#FFFFFF" d="M58.23,32.41h-3.41v-7.59c0-0.16-0.14-0.31-0.31-0.31h-1.25c-0.17,0-0.31,0.14-0.31,0.31v9.01
		c0,0.17,0.14,0.31,0.31,0.31h4.97c0.17,0,0.31-0.14,0.31-0.31v-1.11C58.54,32.55,58.41,32.41,58.23,32.41"/>
	<path fill="#FFFFFF" d="M8.15,24.68c-0.05-0.1-0.16-0.15-0.27-0.15h-1.4c-0.1,0-0.19,0.05-0.26,0.15l-2.13,3.06l-2.13-3.07
		c-0.07-0.1-0.16-0.14-0.26-0.14H0.31c-0.12,0-0.22,0.06-0.27,0.15c-0.06,0.1-0.05,0.22,0.01,0.32l3.09,4.53v4.31
		c0,0.17,0.14,0.31,0.31,0.31H4.7c0.17,0,0.31-0.14,0.31-0.31v-4.32L8.13,25C8.2,24.9,8.2,24.78,8.15,24.68"/>
	<path fill="#FFFFFF" d="M21.12,28.42c-1.12-0.46-1.57-0.88-1.57-1.48c0-0.37,0.36-0.9,1.14-0.9c0.61,0,1.41,0.46,1.84,0.73
		l0.02,0.01c0.09,0.06,0.2,0.07,0.31,0.03c0.09-0.04,0.18-0.11,0.24-0.2l0.52-0.77c0.06-0.08,0.07-0.19,0.05-0.3
		c-0.02-0.1-0.08-0.18-0.15-0.22c-0.2-0.15-1.3-0.92-2.75-0.92c-2.13,0-3.11,1.38-3.11,2.66c0,1.74,1.47,2.54,2.58,2.98
		c1.19,0.48,1.69,0.95,1.69,1.58c0,0.56-0.52,1-1.18,1c-0.51,0-1.21-0.29-1.98-0.81c-0.02-0.01-0.04-0.02-0.04-0.02
		c-0.08-0.06-0.19-0.09-0.3-0.07c-0.1,0.02-0.19,0.08-0.24,0.18l-0.49,0.84c-0.14,0.25-0.05,0.34,0.08,0.47
		c0.19,0.18,1.22,1.07,3.02,1.07c2.06,0,3.17-1.41,3.17-2.74C23.98,29.81,22.53,28.99,21.12,28.42"/>
	<path fill="#FFFFFF" d="M39.37,24.64c-0.02-0.15-0.14-0.25-0.3-0.25h-0.22c-0.13,0-0.22,0.06-0.28,0.17l-2.96,6.36l-2.96-6.36
		c-0.05-0.1-0.16-0.16-0.28-0.16h-0.22c-0.16,0-0.28,0.1-0.29,0.25l-1.62,9.14c-0.02,0.11,0.01,0.2,0.07,0.27
		c0.06,0.07,0.14,0.1,0.24,0.1h1.22c0.15,0,0.28-0.13,0.3-0.25l0.77-5.05l2.36,5.25c0.06,0.12,0.15,0.18,0.28,0.18h0.24
		c0.13,0,0.24-0.07,0.28-0.18l2.34-5.25l0.79,5.05c0.03,0.12,0.16,0.24,0.31,0.24h1.24c0.1,0,0.19-0.04,0.24-0.1
		c0.06-0.07,0.07-0.16,0.05-0.27L39.37,24.64z"/>
	<path fill="#FFFFFF" d="M47.25,24.57c-0.04-0.09-0.11-0.18-0.28-0.18h-0.14c-0.12,0-0.22,0.06-0.28,0.18l-4.22,9.15
		c-0.05,0.1-0.04,0.21,0.01,0.29c0.05,0.09,0.15,0.13,0.27,0.13h1.18c0.29,0,0.4-0.21,0.44-0.3l0.65-1.44h3.99l0.65,1.44
		c0.09,0.19,0.2,0.3,0.44,0.3h1.18c0.11,0,0.21-0.05,0.27-0.13c0.05-0.08,0.06-0.19,0.01-0.29L47.25,24.57z M45.6,30.79l1.27-2.86
		l1.3,2.86H45.6z"/>
	<path fill="#FFFFFF" d="M12.45,24.57c-0.04-0.09-0.11-0.18-0.28-0.18h-0.14c-0.13,0-0.22,0.06-0.28,0.18l-4.22,9.15h0
		c-0.05,0.1-0.04,0.21,0.01,0.29c0.05,0.09,0.15,0.13,0.26,0.13H9c0.29,0,0.4-0.21,0.44-0.3l0.65-1.44h3.99l0.65,1.44
		c0.09,0.19,0.2,0.3,0.44,0.3h1.18c0.11,0,0.21-0.05,0.27-0.13c0.05-0.08,0.06-0.19,0.01-0.29L12.45,24.57z M10.8,30.79l1.27-2.86
		l1.3,2.86H10.8z"/>
	<path fill="#FFFFFF" d="M57.28,14.88h4.55c0.17,0,0.31-0.14,0.31-0.31V8.75c0-0.17-0.14-0.31-0.31-0.31h-1.26
		c-0.17,0-0.31,0.15-0.31,0.31v4.42l-2.86,0c-0.98,0-1.12-0.64-1.12-1.34v0l-0.01-6.5c0-0.17-0.15-0.31-0.31-0.31H54.7
		c-0.17,0-0.31,0.14-0.31,0.31v6.76C54.39,13.88,55.43,14.88,57.28,14.88 M60.48,16.28c-0.12,0-0.21,0.1-0.21,0.21v1.31
		c0,0.12,0.09,0.21,0.21,0.21h1.46c0.12,0,0.21-0.1,0.21-0.21v-1.31c0-0.12-0.09-0.21-0.21-0.21H60.48z M52.08,8.43l-1.35,0
		c-0.19,0-0.34,0.15-0.34,0.34v4.39h-1.98V8.8c0-0.21-0.17-0.37-0.37-0.37h-1.25c-0.2,0-0.37,0.17-0.37,0.37v4.36h-1.98V8.75
		c0-0.18-0.14-0.32-0.32-0.32h-1.28c-0.17,0-0.32,0.15-0.32,0.32l-0.02,7.53h-2.87c-0.89,0-1.08-0.39-1.11-1c0-0.07,0-3.9,0-3.9
		c0-0.07-0.02-0.13-0.06-0.19c-0.06-0.08-0.16-0.14-0.26-0.14h-0.07h-1.19h-0.07c-0.18,0-0.32,0.15-0.32,0.32v0.07v3.69
		c0,0.63,0.13,1.16,0.36,1.59c0.01,0.01,0.02,0.03,0.03,0.04c0.47,0.8,1.34,1.24,2.58,1.24h4.61c0.18,0,0.32-0.14,0.32-0.32v-2.82
		h7.67c0.17,0,0.3-0.14,0.3-0.31V8.77C52.42,8.59,52.27,8.43,52.08,8.43 M7.03,18.02h4.03h0.53c0.17,0,0.31-0.14,0.31-0.31V5.32
		c0-0.17-0.14-0.31-0.31-0.31h-1.26c-0.17,0-0.31,0.15-0.31,0.31v10.97l-2.85-0.01c-0.98,0-1.13-0.65-1.13-1.36l-0.01-3.47
		c0-0.22-0.17-0.39-0.39-0.39l-1.18,0c-0.22,0-0.39,0.2-0.39,0.41l0.01,3.68C4.06,17,5.12,18.02,7.03,18.02 M29.71,14.25
		c-0.28,0.27-0.61,0.46-1,0.58c-0.39,0.12-0.82,0.18-1.29,0.18c-0.51,0-0.98-0.07-1.38-0.21c-0.41-0.14-0.75-0.39-1.03-0.71
		c-0.1,0.17-0.23,0.3-0.37,0.4c-0.14,0.1-0.29,0.18-0.45,0.24c-0.16,0.06-0.31,0.1-0.48,0.12c-0.16,0.02-0.32,0.03-0.46,0.03h-3.07
		v0.42c0,0.96-0.24,1.62-0.73,2.06c-0.49,0.44-1.19,0.66-2.11,0.66h-3.32c-0.1,0-0.15-0.05-0.15-0.15v-1.43
		c0-0.1,0.05-0.15,0.15-0.15h2.97c0.23,0,0.45-0.02,0.63-0.07c0.17-0.05,0.32-0.12,0.43-0.24c0.11-0.11,0.21-0.27,0.26-0.47
		c0.03-0.12,0.04-0.31,0.04-0.63H16.9c-0.48,0-0.91-0.02-1.28-0.13c-0.37-0.11-0.69-0.29-0.94-0.54c-0.26-0.25-0.45-0.57-0.59-0.97
		c-0.14-0.4-0.21-0.89-0.21-1.47c0-0.62,0.09-1.15,0.26-1.6c0.17-0.44,0.41-0.81,0.69-1.09c0.29-0.28,0.62-0.48,1-0.61
		c0.38-0.13,0.78-0.19,1.2-0.19c0.46,0,0.89,0.06,1.27,0.18c0.39,0.12,0.72,0.31,0.99,0.58c0.28,0.26,0.49,0.61,0.65,1.04
		c0.15,0.43,0.23,0.95,0.23,1.57v1.52h2.93c0.25,0,0.53-0.05,0.67-0.12c0.25-0.13,0.39-0.35,0.45-0.53
		c0.05-0.16,0.06-0.31,0.05-0.47c-0.01-0.17-0.02-0.35-0.02-0.52c0-0.5,0.07-1.03,0.25-1.5c0.16-0.41,0.38-0.75,0.66-1.01
		c0.28-0.26,0.61-0.45,0.99-0.56c0.38-0.12,0.8-0.18,1.25-0.18c0.45,0,0.87,0.06,1.27,0.18c0.39,0.12,0.72,0.32,1.01,0.58
		c0.28,0.27,0.5,0.62,0.66,1.06c0.16,0.44,0.24,0.97,0.24,1.59c0,0.6-0.08,1.11-0.23,1.53C30.2,13.64,29.99,13.98,29.71,14.25
		 M18.35,11.65c0-0.56-0.11-0.99-0.32-1.28c-0.21-0.27-0.53-0.41-0.99-0.41c-0.43,0-0.76,0.15-1,0.46c-0.25,0.32-0.37,0.75-0.37,1.3
		c0,0.58,0.12,0.97,0.36,1.18c0.21,0.19,0.53,0.27,1.06,0.27h1.27V11.65z M28.79,11.65c0-1.14-0.46-1.71-1.37-1.71
		c-0.46,0-0.8,0.15-1.03,0.44c-0.22,0.29-0.33,0.72-0.33,1.27c0,0.6,0.11,1.04,0.33,1.3c0.22,0.26,0.56,0.4,1.03,0.4
		c0.47,0,0.82-0.13,1.04-0.4C28.68,12.68,28.79,12.25,28.79,11.65"/>
	<path fill="#FFFFFF" d="M57.82,16.28c-0.12,0-0.21,0.1-0.21,0.21v1.31c0,0.12,0.09,0.21,0.21,0.21h1.46c0.12,0,0.21-0.1,0.21-0.21
		v-1.31c0-0.12-0.09-0.21-0.21-0.21H57.82z"/>
</g>
</svg>
