<?xml version="1.0" encoding="utf-8"?>
<!-- Generator: Adobe Illustrator 24.0.1, SVG Export Plug-In . SVG Version: 6.00 Build 0)  -->
<svg version="1.0" id="Layer_1" xmlns="http://www.w3.org/2000/svg" xmlns:xlink="http://www.w3.org/1999/xlink" x="0px" y="0px"
	 viewBox="0 0 73.21 73.21" enable-background="new 0 0 73.21 73.21" xml:space="preserve">
<g>
	<path fill="#FFFFFF" d="M72.48,72.48H0.73V0.73h71.75V72.48z M73.21,0H0v73.21h73.21V0z"/>
	<g>
		<path fill="#FFFFFF" d="M17.56,52.01l-3.28,8.76h2.93l0.38-1.16h3.03L21,60.77h2.93l-3.27-8.76H17.56z M18.26,57.52l0.61-1.86
			c0.09-0.32,0.18-0.67,0.23-1.13c0.06,0.45,0.15,0.81,0.25,1.13l0.61,1.86H18.26z"/>
	</g>
	<polygon fill="#FFFFFF" points="27.44,52.01 24.54,52.01 24.54,60.77 31.17,60.77 31.17,58.23 27.44,58.23 	"/>
	<g>
		<path fill="#FFFFFF" d="M35.76,52.01h-3.78v8.76h3.78c3.13,0,4.54-1.82,4.54-4.38C40.31,53.83,38.91,52.01,35.76,52.01
			 M35.68,58.34h-0.82v-3.91h0.82c1.03,0,1.65,0.53,1.65,1.95C37.34,57.81,36.71,58.34,35.68,58.34"/>
		<path fill="#FFFFFF" d="M43.4,52.01l-3.27,8.76h2.93l0.38-1.16h3.03l0.38,1.16h2.93l-3.27-8.76L43.4,52.01L43.4,52.01z
			 M44.1,57.52l0.62-1.86c0.09-0.32,0.18-0.67,0.23-1.13c0.06,0.45,0.15,0.81,0.25,1.13l0.62,1.86H44.1z"/>
		<path fill="#FFFFFF" d="M56.68,57.71c0.88-0.44,1.51-1.24,1.51-2.61c0-2.39-1.86-3.09-3.73-3.09h-4.07v8.76h2.88v-2.59h0.67
			l1.8,2.59h3.18L56.68,57.71z M54.4,56.01h-1.11v-1.64h1.11c0.56,0,0.89,0.34,0.89,0.82C55.29,55.67,54.97,56.01,54.4,56.01"/>
	</g>
	<rect x="49.83" y="11.71" fill="#FFFFFF" width="8.87" height="16.27"/>
	<g>
		<path fill="#FFFFFF" d="M53.07,40.69c0,1.43-1.23,1.42-2.06,1.42h-4.11v7.2h11.8V35.36c0,0-1.65-3.38-5.68-6.09l-5.26,5.2
			C47.76,34.44,53.07,37.19,53.07,40.69"/>
		<path fill="#FFFFFF" d="M26.49,23.53c0-4.72,3.03-8.07,3.03-8.07l6.05,3.38c-2.88,3.63-2.27,7.39,1.08,7.39s3.25-3.06,3.25-3.43
			V11.7h7.17v11.64c0,5.02-4.06,10.26-10.34,10.26C31.09,33.62,26.49,29.04,26.49,23.53"/>
		<path fill="#FFFFFF" d="M26.72,30.52h-3.09v3.46c0,7.88-4.33,8.57-6.84,8.54h-2.33v6.82h11.57c4-2.84,6.12-7.63,6.41-14.45
			C30.13,34.02,28.16,32.48,26.72,30.52"/>
		<path fill="#FFFFFF" d="M36.74,35.63c-0.5,0-0.98-0.03-1.46-0.09V49.3h8.86V33.18C42.07,34.72,39.51,35.63,36.74,35.63"/>
	</g>
</g>
</svg>
