<svg xmlns="http://www.w3.org/2000/svg" width="47" height="47" viewBox="0 0 47 47">
  <g id="businesswoman_1_" data-name="businesswoman (1)" transform="translate(0.5 0.5)">
    <path id="Path_147" data-name="Path 147" d="M216.438,217.111v.72a.674.674,0,0,0,1.348,0v-.72a.674.674,0,0,0-1.348,0Zm0,0" transform="translate(-196.992 -196.992)" stroke="#111921" stroke-linejoin="round" stroke-width="1"/>
    <path id="Path_148" data-name="Path 148" d="M281.236,218.505a.674.674,0,0,0,.674-.674v-.72a.674.674,0,0,0-1.348,0v.72A.674.674,0,0,0,281.236,218.505Zm0,0" transform="translate(-255.356 -196.992)" stroke="#111921" stroke-linejoin="round" stroke-width="1"/>
    <path id="Path_149" data-name="Path 149" d="M232.771,257.752a3.314,3.314,0,0,0,3.621,0,.674.674,0,1,0-.741-1.126,1.965,1.965,0,0,1-2.14,0,.674.674,0,0,0-.74,1.126Zm0,0" transform="translate(-211.581 -233.469)" stroke="#111921" stroke-linejoin="round" stroke-width="1"/>
    <path id="Path_150" data-name="Path 150" d="M146.45,98.936a7.879,7.879,0,0,0,1.806,5.017,6.466,6.466,0,0,0,2.515,3.225v1.528a.768.768,0,0,1-.445.7l-4.39,2.026A2.843,2.843,0,0,0,144.289,114v.778a.674.674,0,0,0,1.348,0V114a1.491,1.491,0,0,1,.864-1.35l2.177-1a8.267,8.267,0,0,0,5.648,2.366h.025a8.275,8.275,0,0,0,5.623-2.366l2.177,1a1.491,1.491,0,0,1,.864,1.35v.778a.674.674,0,0,0,1.348,0V114a2.842,2.842,0,0,0-1.647-2.574l-4.39-2.026a.769.769,0,0,1-.445-.7v-1.528a6.467,6.467,0,0,0,2.514-3.223l.008-.009A7.873,7.873,0,0,0,158.6,92.322a4.273,4.273,0,0,0-8.543,0A7.876,7.876,0,0,0,146.45,98.936Zm11.311,11.69.876.4a6.7,6.7,0,0,1-4.29,1.636h-.021a6.7,6.7,0,0,1-4.311-1.635l.877-.4a2.12,2.12,0,0,0,1.228-1.92v-.844a6.441,6.441,0,0,0,4.414,0v.844A2.12,2.12,0,0,0,157.761,110.626Zm3.093-11.69a6.514,6.514,0,0,1-.153,1.4,2.11,2.11,0,0,0-1.579-1.561,14.125,14.125,0,0,1-6.48-3.2.674.674,0,0,0-.953.953,15.455,15.455,0,0,0,7.126,3.559.767.767,0,0,1,.6.748v.979a5.088,5.088,0,1,1-10.176,0v-1.564a.763.763,0,0,1,.225-.542l1.018-1.018a.674.674,0,0,0-.953-.953l-1.018,1.018a2.1,2.1,0,0,0-.611,1.318,6.528,6.528,0,1,1,12.955-1.14Zm-6.528-9.409a2.932,2.932,0,0,1,2.791,2.045,7.871,7.871,0,0,0-5.582,0A2.932,2.932,0,0,1,154.326,89.527Zm0,0" transform="translate(-131.326 -80.257)" stroke="#111921" stroke-linejoin="round" stroke-width="1"/>
    <path id="Path_151" data-name="Path 151" d="M227.287,5.669a2.834,2.834,0,1,0-2.834-2.835A2.838,2.838,0,0,0,227.287,5.669Zm0-4.321A1.487,1.487,0,1,1,225.8,2.835,1.488,1.488,0,0,1,227.287,1.348Zm0,0" transform="translate(-204.287)" stroke="#111921" stroke-linejoin="round" stroke-width="1"/>
    <path id="Path_152" data-name="Path 152" d="M227.287,448.9a2.834,2.834,0,1,0,2.834,2.835A2.838,2.838,0,0,0,227.287,448.9Zm0,4.321a1.487,1.487,0,1,1,1.487-1.487A1.488,1.488,0,0,1,227.287,453.224Zm0,0" transform="translate(-204.287 -408.571)" stroke="#111921" stroke-linejoin="round" stroke-width="1"/>
    <path id="Path_153" data-name="Path 153" d="M451.737,224.453a2.834,2.834,0,1,0,2.834,2.834A2.838,2.838,0,0,0,451.737,224.453Zm0,4.321a1.487,1.487,0,1,1,1.487-1.487A1.489,1.489,0,0,1,451.737,228.774Zm0,0" transform="translate(-408.571 -204.287)" stroke="#111921" stroke-linejoin="round" stroke-width="1"/>
    <path id="Path_154" data-name="Path 154" d="M5.669,227.287a2.834,2.834,0,1,0-2.835,2.834A2.838,2.838,0,0,0,5.669,227.287Zm-4.321,0a1.487,1.487,0,1,1,1.487,1.487A1.488,1.488,0,0,1,1.348,227.287Zm0,0" transform="translate(0 -204.287)" stroke="#111921" stroke-linejoin="round" stroke-width="1"/>
    <path id="Path_155" data-name="Path 155" d="M385.995,71.407a2.834,2.834,0,1,0-2-.83A2.817,2.817,0,0,0,385.995,71.407Zm-1.051-3.886a1.487,1.487,0,1,1-.435,1.051A1.477,1.477,0,0,1,384.944,67.521Zm0,0" transform="translate(-348.736 -59.832)" stroke="#111921" stroke-linejoin="round" stroke-width="1"/>
    <path id="Path_156" data-name="Path 156" d="M68.576,383.164a2.834,2.834,0,1,0,2,.83A2.817,2.817,0,0,0,68.576,383.164Zm1.051,3.886A1.487,1.487,0,1,1,70.063,386,1.477,1.477,0,0,1,69.628,387.05Zm0,0" transform="translate(-59.836 -348.739)" stroke="#111921" stroke-linejoin="round" stroke-width="1"/>
    <path id="Path_157" data-name="Path 157" d="M385.995,383.164a2.834,2.834,0,1,0,2,.83A2.816,2.816,0,0,0,385.995,383.164Zm1.051,3.886a1.487,1.487,0,1,1,.435-1.051A1.477,1.477,0,0,1,387.046,387.05Zm0,0" transform="translate(-348.736 -348.739)" stroke="#111921" stroke-linejoin="round" stroke-width="1"/>
    <path id="Path_158" data-name="Path 158" d="M68.576,65.742a2.834,2.834,0,1,0,2,.83A2.817,2.817,0,0,0,68.576,65.742Zm1.051,3.885a1.487,1.487,0,1,1,.436-1.051A1.477,1.477,0,0,1,69.628,69.628Zm0,0" transform="translate(-59.836 -59.836)" stroke="#111921" stroke-linejoin="round" stroke-width="1"/>
    <path id="Path_159" data-name="Path 159" d="M34.531,310.14a19.369,19.369,0,0,1-2.087-5.025.674.674,0,1,0-1.305.336,20.717,20.717,0,0,0,2.232,5.374.674.674,0,0,0,1.16-.685Zm0,0" transform="translate(-28.322 -277.242)" stroke="#111921" stroke-linejoin="round" stroke-width="1"/>
    <path id="Path_160" data-name="Path 160" d="M31.623,141.041a.667.667,0,0,0,.168.022.674.674,0,0,0,.652-.506,19.369,19.369,0,0,1,2.087-5.025.674.674,0,1,0-1.16-.685,20.719,20.719,0,0,0-2.232,5.374A.674.674,0,0,0,31.623,141.041Zm0,0" transform="translate(-28.322 -122.43)" stroke="#111921" stroke-linejoin="round" stroke-width="1"/>
    <path id="Path_161" data-name="Path 161" d="M310.826,33.371a20.719,20.719,0,0,0-5.374-2.232.674.674,0,1,0-.336,1.305,19.381,19.381,0,0,1,5.025,2.087.674.674,0,1,0,.685-1.16Zm0,0" transform="translate(-277.242 -28.322)" stroke="#111921" stroke-linejoin="round" stroke-width="1"/>
    <path id="Path_162" data-name="Path 162" d="M140.557,444.02a19.368,19.368,0,0,1-5.025-2.087.674.674,0,1,0-.685,1.16,20.719,20.719,0,0,0,5.374,2.232.674.674,0,0,0,.336-1.305Zm0,0" transform="translate(-122.43 -402.143)" stroke="#111921" stroke-linejoin="round" stroke-width="1"/>
    <path id="Path_163" data-name="Path 163" d="M310.14,441.931a19.368,19.368,0,0,1-5.025,2.087.674.674,0,1,0,.336,1.305,20.719,20.719,0,0,0,5.374-2.232.674.674,0,1,0-.685-1.16Zm0,0" transform="translate(-277.242 -402.141)" stroke="#111921" stroke-linejoin="round" stroke-width="1"/>
    <path id="Path_164" data-name="Path 164" d="M441.931,135.531a19.368,19.368,0,0,1,2.087,5.025.674.674,0,0,0,.652.506.667.667,0,0,0,.168-.022.674.674,0,0,0,.485-.821,20.716,20.716,0,0,0-2.232-5.374.674.674,0,0,0-1.16.686Zm0,0" transform="translate(-402.141 -122.429)" stroke="#111921" stroke-linejoin="round" stroke-width="1"/>
    <path id="Path_165" data-name="Path 165" d="M444.839,304.633a.674.674,0,0,0-.821.484,19.368,19.368,0,0,1-2.087,5.025.674.674,0,0,0,1.16.686,20.729,20.729,0,0,0,2.232-5.374A.674.674,0,0,0,444.839,304.633Zm0,0" transform="translate(-402.141 -277.244)" stroke="#111921" stroke-linejoin="round" stroke-width="1"/>
    <path id="Path_166" data-name="Path 166" d="M135.19,34.625a.672.672,0,0,0,.342-.094,19.369,19.369,0,0,1,5.025-2.087.674.674,0,1,0-.336-1.305,20.707,20.707,0,0,0-5.374,2.232.674.674,0,0,0,.343,1.254Zm0,0" transform="translate(-122.43 -28.322)" stroke="#111921" stroke-linejoin="round" stroke-width="1"/>
  </g>
</svg>
