<svg xmlns="http://www.w3.org/2000/svg" width="44" height="52.8" viewBox="0 0 44 52.8">
  <g id="credit-card_5_" data-name="credit-card (5)" transform="translate(-40)">
    <g id="Group_38" data-name="Group 38" transform="translate(40)">
      <g id="Group_37" data-name="Group 37">
        <path id="Path_93" data-name="Path 93" d="M81.36,0H58.48a2.64,2.64,0,0,0-2.64,2.64V12.766l-8.96,6.878A4.377,4.377,0,0,0,44.958,22.3L40.237,41.184A7.9,7.9,0,0,0,40,43.107V52.8h1.76V43.107a6.146,6.146,0,0,1,.184-1.5l4.722-18.887a2.627,2.627,0,0,1,1.177-1.6c.026-.016.05-.033.075-.051l7.92-6.081V26.036L52.576,29.3l1.244,1.244L65.23,19.134a2.232,2.232,0,0,1,3.81,1.578v.137a2.22,2.22,0,0,1-.522,1.434L61.347,30.21a.88.88,0,0,0-.216.724l.067.44c.88,5.729-2.367,10.7-8.272,12.672l.556,1.672a14.755,14.755,0,0,0,6.65-4.358h6.336l-3.313,4.733a9.63,9.63,0,0,1-4.531,3.513L54.649,51.1a.88.88,0,0,0-.569.825v.88h1.76v-.27l3.4-1.276A11.394,11.394,0,0,0,64.6,47.1l4.02-5.742H81.36A2.64,2.64,0,0,0,84,38.72V2.64A2.64,2.64,0,0,0,81.36,0Zm.88,38.72a.88.88,0,0,1-.88.88H61.384a12.7,12.7,0,0,0,1.55-8.5V31.08l6.905-7.633a4,4,0,0,0,.961-2.6v-.137a3.991,3.991,0,0,0-6.814-2.822L57.6,24.276V2.64a.88.88,0,0,1,.88-.88H81.36a.88.88,0,0,1,.88.88Z" transform="translate(-40)"/>
      </g>
    </g>
    <g id="Group_42" data-name="Group 42" transform="translate(59.064 5.218)">
      <g id="Group_41" data-name="Group 41" transform="translate(0 0)">
        <rect id="Rectangle_30" data-name="Rectangle 30" width="2.115" height="13.217" transform="translate(0 0)"/>
      </g>
    </g>
    <g id="Group_44" data-name="Group 44" transform="translate(62.764 6.276)">
      <g id="Group_43" data-name="Group 43" transform="translate(0 0)">
        <rect id="Rectangle_31" data-name="Rectangle 31" width="2.115" height="8.459"/>
      </g>
    </g>
    <g id="Group_46" data-name="Group 46" transform="translate(69.109 26.366)">
      <g id="Group_45" data-name="Group 45" transform="translate(0 0)">
        <rect id="Rectangle_32" data-name="Rectangle 32" width="2.115" height="3.701"/>
      </g>
    </g>
    <g id="Group_48" data-name="Group 48" transform="translate(69.109 31.653)">
      <g id="Group_47" data-name="Group 47" transform="translate(0 0)">
        <rect id="Rectangle_33" data-name="Rectangle 33" width="2.115" height="4.758"/>
      </g>
    </g>
    <g id="Group_50" data-name="Group 50" transform="translate(74.924 18.964)">
      <g id="Group_49" data-name="Group 49" transform="translate(0 0)">
        <rect id="Rectangle_34" data-name="Rectangle 34" width="2.115" height="17.975" transform="translate(0)"/>
      </g>
    </g>
    <g id="Group_52" data-name="Group 52" transform="translate(78.625 18.964)">
      <g id="Group_51" data-name="Group 51" transform="translate(0 0)">
        <rect id="Rectangle_35" data-name="Rectangle 35" width="1.586" height="17.975" transform="translate(0)"/>
      </g>
    </g>
  </g>
</svg>
