<svg xmlns="http://www.w3.org/2000/svg" width="46" height="33.925" viewBox="0 0 46 33.925">
  <g id="identification" transform="translate(0 5.25)">
    <path id="Path_141" data-name="Path 141" d="M119.58,91.659a4.955,4.955,0,1,0-4.955-4.955A4.955,4.955,0,0,0,119.58,91.659Zm0-7.983a3.038,3.038,0,1,1-3.038,3.038A3.038,3.038,0,0,1,119.58,83.676Zm0,0" transform="translate(-105.837 -80.33)"/>
    <path id="Path_142" data-name="Path 142" d="M87.609,234.873a7.436,7.436,0,0,0-5.386,2.252A7.949,7.949,0,0,0,80,242.75a.961.961,0,0,0,.958.958h13.3a.961.961,0,0,0,.958-.958A7.949,7.949,0,0,0,93,237.125,7.435,7.435,0,0,0,87.609,234.873Zm-5.625,6.919a5.863,5.863,0,0,1,1.61-3.325,5.646,5.646,0,0,1,8.031,0,5.89,5.89,0,0,1,1.61,3.325Zm0,0" transform="translate(-73.867 -221.713)"/>
    <path id="Path_143" data-name="Path 143" d="M41.208-5.25H4.792A4.794,4.794,0,0,0,0-.458V23.883a4.794,4.794,0,0,0,4.792,4.792H41.208A4.794,4.794,0,0,0,46,23.883V-.458A4.794,4.794,0,0,0,41.208-5.25Zm2.875,29.133a2.883,2.883,0,0,1-2.875,2.875H4.792a2.883,2.883,0,0,1-2.875-2.875V-.458A2.883,2.883,0,0,1,4.792-3.333H41.208A2.883,2.883,0,0,1,44.083-.458Zm0,0" transform="translate(0 0)"/>
    <path id="Path_144" data-name="Path 144" d="M360.748,203.5H349.583a.958.958,0,1,0,0,1.917h11.165a.958.958,0,0,0,0-1.917Zm0,0" transform="translate(-321.897 -192.746)"/>
    <path id="Path_145" data-name="Path 145" d="M360.748,283.5H349.583a.958.958,0,1,0,0,1.917h11.165a.958.958,0,0,0,0-1.917Zm0,0" transform="translate(-321.897 -266.613)"/>
    <path id="Path_146" data-name="Path 146" d="M360.748,123.5H349.583a.958.958,0,1,0,0,1.917h11.165a.958.958,0,0,0,0-1.917Zm0,0" transform="translate(-321.897 -118.879)"/>
  </g>
</svg>
